<svg width="94" height="17" viewBox="0 0 94 17" fill="none" xmlns="http://www.w3.org/2000/svg">
<path d="M9.94922 0.25H87.6143C90.2616 0.25 92.0751 2.91942 91.1006 5.38086L87.5381 14.3809C86.9718 15.8109 85.5889 16.75 84.0508 16.75H6.38574C3.73842 16.75 1.92493 14.0806 2.89941 11.6191L6.46191 2.61914C7.02823 1.18912 8.41112 0.25 9.94922 0.25Z" fill="#FEAE38" fill-opacity="0.16" stroke="#FEAE38" stroke-width="0.5"/>
<path d="M11.7102 11L12.6761 5.18182H13.7301L12.9119 10.1165H15.4744L15.3267 11H11.7102ZM20.875 5.18182H21.929L21.2983 8.98295C21.2301 9.39962 21.071 9.7661 20.821 10.0824C20.5729 10.3987 20.2566 10.6458 19.8722 10.8239C19.4877 11 19.0597 11.0881 18.5881 11.0881C18.1127 11.0881 17.7131 11 17.3892 10.8239C17.0653 10.6458 16.8314 10.3987 16.6875 10.0824C16.5455 9.7661 16.5085 9.39962 16.5767 8.98295L17.2074 5.18182H18.2614L17.6449 8.89489C17.6051 9.13731 17.6231 9.35322 17.6989 9.54261C17.7765 9.73011 17.9034 9.87784 18.0795 9.9858C18.2576 10.0937 18.4801 10.1477 18.7472 10.1477C19.0142 10.1477 19.2547 10.0937 19.4688 9.9858C19.6828 9.87784 19.858 9.73011 19.9943 9.54261C20.1307 9.35322 20.2188 9.13731 20.2585 8.89489L20.875 5.18182ZM27.7223 7.14489H26.6768C26.6768 6.97064 26.6484 6.81629 26.5916 6.68182C26.5348 6.54545 26.4553 6.42992 26.353 6.33523C26.2507 6.24053 26.1295 6.16951 25.9893 6.12216C25.8492 6.07292 25.6939 6.0483 25.5234 6.0483C25.1977 6.0483 24.8946 6.13068 24.6143 6.29545C24.334 6.46023 24.0964 6.69981 23.9013 7.0142C23.7062 7.3267 23.5708 7.70644 23.495 8.15341C23.425 8.58902 23.4316 8.9536 23.5149 9.24716C23.6001 9.54072 23.7479 9.76231 23.9581 9.91193C24.1683 10.0597 24.424 10.1335 24.7251 10.1335C24.9089 10.1335 25.085 10.1108 25.2536 10.0653C25.4221 10.018 25.5774 9.94886 25.7195 9.85795C25.8634 9.76515 25.9893 9.65246 26.0973 9.51989C26.2071 9.38731 26.2924 9.23674 26.353 9.06818H27.4126C27.3255 9.3447 27.1977 9.60511 27.0291 9.84943C26.8606 10.0919 26.6579 10.3059 26.4212 10.4915C26.1844 10.6752 25.9193 10.8191 25.6257 10.9233C25.3321 11.0275 25.0159 11.0795 24.6768 11.0795C24.156 11.0795 23.71 10.9583 23.3388 10.7159C22.9695 10.4716 22.7043 10.1222 22.5433 9.66761C22.3823 9.21117 22.3539 8.66477 22.4581 8.02841C22.5623 7.40909 22.763 6.88163 23.0604 6.44602C23.3596 6.01042 23.7242 5.67803 24.1541 5.44886C24.5859 5.2178 25.0509 5.10227 25.549 5.10227C25.8786 5.10227 26.1778 5.14773 26.4467 5.23864C26.7176 5.32955 26.9496 5.46307 27.1428 5.6392C27.3359 5.81345 27.4827 6.02746 27.5831 6.28125C27.6854 6.53314 27.7318 6.82102 27.7223 7.14489ZM28.054 11L29.0199 5.18182H30.0739L29.6335 7.85511H29.7045L32.4148 5.18182H33.7017L31.0227 7.79261L32.7557 11H31.4886L30.1761 8.50568L29.3977 9.27273L29.108 11H28.054ZM41.1229 8.15909C41.0206 8.77652 40.8189 9.30303 40.5178 9.73864C40.2185 10.1723 39.853 10.5047 39.4212 10.7358C38.9912 10.965 38.5282 11.0795 38.032 11.0795C37.5111 11.0795 37.0642 10.9583 36.6911 10.7159C36.3179 10.4716 36.049 10.1222 35.8842 9.66761C35.7214 9.21307 35.6929 8.66761 35.799 8.03125C35.9013 7.41572 36.102 6.8892 36.4013 6.4517C36.7005 6.0142 37.067 5.67992 37.5007 5.44886C37.9344 5.2178 38.4022 5.10227 38.9041 5.10227C39.4212 5.10227 39.8643 5.22443 40.2337 5.46875C40.6049 5.71117 40.8719 6.06061 41.0348 6.51705C41.1996 6.97348 41.2289 7.52083 41.1229 8.15909ZM40.0859 8.03125C40.156 7.60133 40.1494 7.23864 40.0661 6.94318C39.9846 6.64773 39.8397 6.42519 39.6314 6.27557C39.4231 6.12405 39.1664 6.0483 38.8615 6.0483C38.532 6.0483 38.227 6.13068 37.9467 6.29545C37.6683 6.45833 37.4316 6.69697 37.2365 7.01136C37.0433 7.32576 36.9107 7.70833 36.8388 8.15909C36.763 8.59091 36.7678 8.9536 36.853 9.24716C36.9382 9.54072 37.0859 9.76231 37.2962 9.91193C37.5064 10.0597 37.763 10.1335 38.0661 10.1335C38.3937 10.1335 38.6967 10.0521 38.9751 9.8892C39.2536 9.72633 39.4893 9.48864 39.6825 9.17614C39.8776 8.86364 40.0121 8.48201 40.0859 8.03125ZM41.6477 11L42.6136 5.18182H46.3409L46.1932 6.06534H43.5199L43.2585 7.64489H45.6761L45.5284 8.52841H43.1108L42.7017 11H41.6477ZM48.8821 6.06534L49.0298 5.18182H53.6719L53.5241 6.06534H51.7259L50.9077 11H49.8622L50.6804 6.06534H48.8821ZM53.6009 11L54.5668 5.18182H55.6207L55.2116 7.64489H57.9077L58.3168 5.18182H59.3736L58.4077 11H57.3509L57.7599 8.52841H55.0639L54.6548 11H53.6009ZM59.554 11L60.5199 5.18182H64.304L64.1562 6.06534H61.4261L61.1648 7.64489H63.6989L63.5511 8.52841H61.017L60.7557 10.1165H63.5085L63.3608 11H59.554ZM68.3977 11H66.3977L67.3636 5.18182H69.3466C69.9242 5.18182 70.4034 5.30114 70.7841 5.53977C71.1648 5.77841 71.4318 6.11932 71.5852 6.5625C71.7405 7.00379 71.767 7.5303 71.6648 8.14205C71.5663 8.74053 71.3722 9.25284 71.0824 9.67898C70.7926 10.1051 70.4205 10.4318 69.9659 10.6591C69.5114 10.8864 68.9886 11 68.3977 11ZM67.6023 10.0881H68.4517C68.8551 10.0881 69.2064 10.0114 69.5057 9.85795C69.8068 9.70265 70.0521 9.47254 70.2415 9.16761C70.4328 8.8608 70.5653 8.48011 70.6392 8.02557C70.7131 7.58996 70.7083 7.23011 70.625 6.94602C70.5417 6.66004 70.3797 6.44697 70.1392 6.30682C69.9006 6.16477 69.5843 6.09375 69.1903 6.09375H68.2642L67.6023 10.0881ZM72.6293 11H71.5043L74.5185 5.18182H75.8196L76.9048 11H75.7798L74.9986 6.375H74.9531L72.6293 11ZM73.044 8.71875H76.1122L75.9702 9.56534H72.902L73.044 8.71875ZM77.6456 5.18182H78.8359L79.8331 7.75568H79.8956L81.7393 5.18182H82.9297L80.2081 8.82955L79.8473 11H78.7962L79.157 8.82955L77.6456 5.18182Z" fill="white"/>
<path d="M0.5 4H7.5" stroke="#FEAE38"/>
<path d="M86.5 10H93.5" stroke="#FEAE38"/>
</svg>
