<svg width="94" height="17" viewBox="0 0 94 17" fill="none" xmlns="http://www.w3.org/2000/svg">
<path d="M9.94922 0.25H87.6143C90.2616 0.25 92.0751 2.91942 91.1006 5.38086L87.5381 14.3809C86.9718 15.8109 85.5889 16.75 84.0508 16.75H6.38574C3.73842 16.75 1.92493 14.0806 2.89941 11.6191L6.46191 2.61914C7.02823 1.18912 8.41112 0.25 9.94922 0.25Z" fill="#09A0FC" fill-opacity="0.16" stroke="#09A0FC" stroke-width="0.5"/>
<path d="M19.1555 11L20.1214 5.18182H21.1754L20.3572 10.1165H22.9197L22.772 11H19.1555ZM24.6527 11H23.5277L26.5419 5.18182H27.843L28.9283 11H27.8033L27.022 6.375H26.9766L24.6527 11ZM25.0675 8.71875H28.1357L27.9936 9.56534H24.9254L25.0675 8.71875ZM33.456 6.80966C33.4635 6.5464 33.383 6.3447 33.2145 6.20455C33.0478 6.06439 32.8082 5.99432 32.4957 5.99432C32.276 5.99432 32.0819 6.02746 31.9134 6.09375C31.7467 6.15814 31.6122 6.24811 31.5099 6.36364C31.4077 6.47727 31.3442 6.60701 31.3196 6.75284C31.2988 6.87216 31.3092 6.97633 31.3509 7.06534C31.3925 7.15436 31.456 7.23011 31.5412 7.29261C31.6283 7.35511 31.7268 7.4072 31.8366 7.44886C31.9484 7.49053 32.062 7.52557 32.1776 7.55398L32.7003 7.69034C32.9086 7.74148 33.1075 7.81061 33.2969 7.89773C33.4863 7.98295 33.6501 8.0928 33.7884 8.22727C33.9285 8.35985 34.0308 8.51989 34.0952 8.70739C34.1596 8.89489 34.17 9.11458 34.1264 9.36648C34.0696 9.70739 33.9323 10.0076 33.7145 10.267C33.4986 10.5246 33.2145 10.7263 32.8622 10.8722C32.5118 11.0161 32.1037 11.0881 31.6378 11.0881C31.187 11.0881 30.8063 11.018 30.4957 10.8778C30.1851 10.7358 29.9579 10.5303 29.8139 10.2614C29.6719 9.99242 29.6264 9.66572 29.6776 9.28125H30.7145C30.6937 9.4839 30.7268 9.65246 30.8139 9.78693C30.9029 9.9214 31.0308 10.0218 31.1974 10.0881C31.3641 10.1544 31.5573 10.1875 31.777 10.1875C32.0062 10.1875 32.2135 10.1534 32.3991 10.0852C32.5848 10.0152 32.7363 9.91856 32.8537 9.79545C32.973 9.67045 33.0459 9.52462 33.0724 9.35795C33.099 9.20833 33.0772 9.08333 33.0071 8.98295C32.937 8.88258 32.8281 8.79924 32.6804 8.73295C32.5346 8.66477 32.3603 8.60417 32.1577 8.55114L31.527 8.38068C31.0705 8.25568 30.724 8.06818 30.4872 7.81818C30.2524 7.56818 30.169 7.23485 30.2372 6.81818C30.294 6.47348 30.437 6.1733 30.6662 5.91761C30.8954 5.66004 31.1823 5.46023 31.527 5.31818C31.8717 5.17424 32.2486 5.10227 32.6577 5.10227C33.0705 5.10227 33.42 5.17424 33.706 5.31818C33.9938 5.46212 34.2041 5.66288 34.3366 5.92045C34.4711 6.17614 34.5156 6.47254 34.4702 6.80966H33.456ZM35.3587 6.06534L35.5064 5.18182H40.1484L40.0007 6.06534H38.2024L37.3842 11H36.3388L37.157 6.06534H35.3587ZM43.2862 11L42.6101 5.18182H43.7436L44.0845 9.45739H44.1385L45.9652 5.18182H46.9964L47.4112 9.46023H47.4624L49.218 5.18182H50.3516L47.7436 11H46.7038L46.2209 6.91761H46.1754L44.326 11H43.2862ZM52.1364 5.18182L51.1705 11H50.1165L51.0824 5.18182H52.1364ZM58.0589 5.18182L57.093 11H56.1555L54.0732 7.03693H54.0277L53.3658 11H52.3118L53.2777 5.18182H54.2209L56.3004 9.14773H56.3544L57.0107 5.18182H58.0589ZM63.9886 5.18182L63.0227 11H62.0852L60.0028 7.03693H59.9574L59.2955 11H58.2415L59.2074 5.18182H60.1506L62.2301 9.14773H62.2841L62.9403 5.18182H63.9886ZM64.1712 11L65.1371 5.18182H68.9212L68.7734 6.06534H66.0433L65.782 7.64489H68.3161L68.1683 8.52841H65.6342L65.3729 10.1165H68.1257L67.978 11H64.1712ZM69.0305 11L69.9964 5.18182H72.1783C72.6252 5.18182 72.9879 5.25947 73.2663 5.41477C73.5447 5.57008 73.7389 5.78788 73.8487 6.06818C73.9586 6.34659 73.9822 6.6714 73.9197 7.04261C73.8591 7.41383 73.7266 7.73674 73.522 8.01136C73.3194 8.28409 73.0514 8.49527 72.718 8.64489C72.3866 8.79451 71.9974 8.86932 71.5504 8.86932H69.9964L70.1442 7.99432H71.5589C71.8203 7.99432 72.04 7.95833 72.218 7.88636C72.3961 7.8125 72.5362 7.70549 72.6385 7.56534C72.7427 7.4233 72.8118 7.24905 72.8459 7.04261C72.8781 6.83617 72.8658 6.66004 72.8089 6.5142C72.754 6.36648 72.6489 6.25473 72.4936 6.17898C72.3402 6.10133 72.1328 6.0625 71.8714 6.0625H70.9055L70.0845 11H69.0305ZM72.4737 8.36364L73.4766 11H72.3004L71.3232 8.36364H72.4737Z" fill="white"/>
<path d="M0.5 4H7.5" stroke="#09A0FC"/>
<path d="M86.5 10H93.5" stroke="#09A0FC"/>
</svg>
